<svg width="45" height="45" viewBox="0 0 45 45" fill="none" xmlns="http://www.w3.org/2000/svg">
<path d="M45 22.5C45 34.9264 34.9264 45 22.5 45C10.0736 45 0 34.9264 0 22.5C0 10.0736 10.0736 0 22.5 0C34.9264 0 45 10.0736 45 22.5Z" fill="#561E37"/>
<path d="M21.8939 8.52273C15.5737 8.52273 10.4545 9.23769 10.4545 14.2424V28.5417C10.4578 29.1413 10.5867 29.7337 10.833 30.2805C11.0793 30.8272 11.4375 31.3163 11.8845 31.7161V34.2614C11.8845 34.6406 12.0351 35.0043 12.3033 35.2725C12.5714 35.5406 12.9352 35.6913 13.3144 35.6913H14.7443C15.1236 35.6913 15.4873 35.5406 15.7554 35.2725C16.0236 35.0043 16.1742 34.6406 16.1742 34.2614V32.8314H24.7538C23.8989 31.2952 23.4096 29.5827 23.3239 27.8267C23.3366 26.5604 23.6522 25.3156 24.2442 24.1962C24.8363 23.0768 25.6876 22.1153 26.7271 21.392H13.3144V14.2424H30.4735V19.9621C30.7116 19.9475 30.9504 19.9475 31.1884 19.9621C31.9147 19.9644 32.637 20.0704 33.3333 20.2767V14.2424C33.3333 9.23769 28.2142 8.52273 21.8939 8.52273ZM15.4593 25.6818C15.8835 25.6818 16.2982 25.8076 16.6509 26.0433C17.0036 26.279 17.2786 26.614 17.4409 27.0059C17.6032 27.3978 17.6457 27.8291 17.563 28.2452C17.4802 28.6612 17.2759 29.0434 16.9759 29.3434C16.676 29.6433 16.2938 29.8476 15.8777 29.9304C15.4617 30.0131 15.0304 29.9707 14.6385 29.8083C14.2465 29.646 13.9116 29.3711 13.6759 29.0183C13.4402 28.6656 13.3144 28.2509 13.3144 27.8267C13.3144 27.2578 13.5404 26.7123 13.9426 26.31C14.3449 25.9078 14.8904 25.6818 15.4593 25.6818ZM31.1884 22.822C29.8657 22.8368 28.6014 23.3689 27.666 24.3043C26.7306 25.2396 26.1986 26.504 26.1837 27.8267C26.1837 31.5445 31.1884 37.1212 31.1884 37.1212C31.1884 37.1212 36.1932 31.5445 36.1932 27.8267C36.1783 26.504 35.6463 25.2396 34.7109 24.3043C33.7755 23.3689 32.5112 22.8368 31.1884 22.822ZM31.1884 29.6856C30.7334 29.6856 30.2969 29.5048 29.9751 29.183C29.6533 28.8612 29.4725 28.4248 29.4725 27.9697C29.4725 27.5146 29.6533 27.0782 29.9751 26.7564C30.2969 26.4346 30.7334 26.2538 31.1884 26.2538C31.6336 26.2839 32.0528 26.4743 32.3683 26.7899C32.6838 27.1054 32.8742 27.5245 32.9044 27.9697C32.9145 28.1977 32.8771 28.4254 32.7944 28.6382C32.7118 28.8509 32.5858 29.0442 32.4243 29.2056C32.2629 29.367 32.0697 29.493 31.8569 29.5757C31.6441 29.6583 31.4165 29.6958 31.1884 29.6856Z" fill="white"/>
</svg>
