<svg width="170" height="170" viewBox="0 0 170 170" fill="none" xmlns="http://www.w3.org/2000/svg">
<path d="M78.6177 79.343H96.7201C99.7208 79.343 102.599 78.151 104.72 76.0292C106.842 73.9074 108.034 71.0297 108.034 68.029C108.034 65.0284 106.842 62.1506 104.72 60.0288C102.599 57.907 99.7208 56.715 96.7201 56.715H78.6177V79.343Z" fill="#561E37"/>
<path fill-rule="evenodd" clip-rule="evenodd" d="M85 170C131.944 170 170 131.944 170 85C170 38.0558 131.944 0 85 0C38.0558 0 0 38.0558 0 85C0 131.944 38.0558 170 85 170ZM55.9898 34.087H95.5887C114.313 34.087 129.531 49.2478 129.531 68.029C129.531 77.031 125.955 85.6643 119.589 92.0296C113.224 98.395 104.591 101.971 95.5887 101.971H78.6177V135.913H55.9898V34.087Z" fill="#561E37"/>
</svg>
