<svg width="45" height="45" viewBox="0 0 45 45" fill="none" xmlns="http://www.w3.org/2000/svg">
<path d="M45 22.5C45 34.9264 34.9264 45 22.5 45C10.0736 45 0 34.9264 0 22.5C0 10.0736 10.0736 0 22.5 0C34.9264 0 45 10.0736 45 22.5Z" fill="#561E37"/>
<path d="M32.2615 21.6051H24.4609V13.8007H32.2615M29.9213 30.9703C29.3006 30.9703 28.7054 30.7236 28.2665 30.2845C27.8277 29.8454 27.5811 29.2499 27.5811 28.629C27.5811 28.008 27.8277 27.4125 28.2665 26.9734C28.7054 26.5343 29.3006 26.2877 29.9213 26.2877C30.5419 26.2877 31.1372 26.5343 31.576 26.9734C32.0149 27.4125 32.2615 28.008 32.2615 28.629C32.2615 29.2499 32.0149 29.8454 31.576 30.2845C31.1372 30.7236 30.5419 30.9703 29.9213 30.9703ZM21.3406 21.6051H13.5401V13.8007H21.3406M15.8802 30.9703C15.2596 30.9703 14.6644 30.7236 14.2255 30.2845C13.7866 29.8454 13.5401 29.2499 13.5401 28.629C13.5401 28.008 13.7866 27.4125 14.2255 26.9734C14.6644 26.5343 15.2596 26.2877 15.8802 26.2877C16.5009 26.2877 17.0961 26.5343 17.535 26.9734C17.9739 27.4125 18.2204 28.008 18.2204 28.629C18.2204 29.2499 17.9739 29.8454 17.535 30.2845C17.0961 30.7236 16.5009 30.9703 15.8802 30.9703ZM22.9008 7.55725C16.0051 7.55725 10.4198 8.33769 10.4198 13.8007V28.629C10.4198 30.0779 10.9951 31.4674 12.0192 32.4919C13.0432 33.5164 14.4321 34.092 15.8802 34.092L13.5401 36.4333V37.2137H32.2615V36.4333L29.9213 34.092C31.3695 34.092 32.7583 33.5164 33.7824 32.4919C34.8064 31.4674 35.3817 30.0779 35.3817 28.629V13.8007C35.3817 8.33769 29.7965 7.55725 22.9008 7.55725Z" fill="white"/>
</svg>
